<svg id="Layer_1" data-name="Layer 1" xmlns="http://www.w3.org/2000/svg" viewBox="0 0 397.33 117"><defs><style>.cls-1{font-size:108.59px;fill:#414042;font-family:TisaPro, Tisa Pro;}.cls-2{fill:#27aae1;}.cls-3{font-size:14px;fill:#231f20;font-family:Helvetica-Light, Helvetica;}.cls-4{fill:none;stroke:#27aae1;stroke-miterlimit:10;}</style></defs><title>Artboard 2</title><text class="cls-1" transform="translate(88.56 86.08)">float</text><path class="cls-2" d="M119.3,7.21a40.55,40.55,0,0,1,5.85-.4c5.1,0,14.12,1.09,19.22,2.93V34.5h-9.45v-20a26.11,26.11,0,0,0-9-1.63,21.93,21.93,0,0,0-6.44.86Z"/><path class="cls-2" d="M210.39,59.48c0,18.13-9.66,28.45-24.65,28.45-15.85,0-24.76-9.77-24.76-28.45,0-16.61,10.64-26.82,24.76-26.82C200.51,32.66,210.39,42.21,210.39,59.48ZM185.74,81.41c10,0,14.77-8.47,14.77-21.93,0-11.62-5.75-20.41-14.77-20.41-9.66,0-14.88,8.14-14.88,20.41C170.87,72.72,176.52,81.41,185.74,81.41Z"/><path class="cls-2" d="M251.33,79.67c-2.82,5.32-8.69,8.25-15.2,8.25-7.93,0-15.42-4.56-15.42-14.55,0-11.18,9.45-16.94,20.2-16.94A27,27,0,0,1,251,58.28l.11,4.78a35.45,35.45,0,0,0-7.6-.87c-8.47,0-13.25,3.8-13.25,9.55,0,6,4.67,8.69,9.88,8.69,4.24,0,8.79-2.06,11-5.32Z"/><text class="cls-3" transform="translate(135.36 112.12)">counter</text><line class="cls-4" x1="185.64" y1="62.32" x2="185.64" y2="109.34"/><text class="cls-3" transform="translate(208.28 112.12)">bowl</text><line class="cls-4" x1="240.64" y1="72.18" x2="240.64" y2="109.34"/><text class="cls-3" transform="translate(158.57 15.8)">ligature</text><line class="cls-4" x1="156.2" y1="10.65" x2="141.95" y2="10.65"/></svg>