<svg id="Layer_1" data-name="Layer 1" xmlns="http://www.w3.org/2000/svg" viewBox="0 0 397.33 126.92"><defs><style>.cls-1{font-size:14px;fill:#231f20;font-family:Helvetica-Light, Helvetica;}.cls-2{fill:none;stroke:#27aae1;stroke-miterlimit:10;}.cls-3{font-size:108.59px;fill:#414042;font-family:TisaPro, Tisa Pro;}.cls-4{fill:#27aae1;}</style></defs><title>Artboard 4</title><text class="cls-1" transform="translate(214.93 117.86)">decender</text><line class="cls-2" x1="296.54" y1="114.33" x2="276.29" y2="114.33"/><text class="cls-1" transform="translate(206.47 20.45)">ascender</text><line class="cls-2" x1="204.43" y1="16.3" x2="190.18" y2="16.3"/><text class="cls-3" transform="translate(-2.65 93.92)">Garbage</text><path class="cls-4" d="M181.29,48.86v-27h-7.82a12.55,12.55,0,0,1,2-5.75,32.38,32.38,0,0,1,9.77-1.52,22.13,22.13,0,0,1,5.54.65v21c0,4.24-.22,8.47-.54,12.7Z"/><path class="cls-4" d="M305,82.52c0,4.24,5.86,5,15.74,5,12.59,0,22.26,2.71,22.26,14.33,0,13-12.6,19.44-27.25,19.44-12.81,0-24.43-5.32-24.43-16.29,0-6.19,5-10.53,9.45-11.62v-.54a7.87,7.87,0,0,1-5.21-7.71,8.66,8.66,0,0,1,.42-2.63Zm-4.56,21.17c0,7.6,8.79,11.4,16.83,11.4,8.58,0,16.61-3.8,16.61-11.18,0-5.43-4.13-8.14-15.31-8.14a59.6,59.6,0,0,1-12.38-1.09A9.51,9.51,0,0,0,300.41,103.69Z"/></svg>