<svg id="Layer_1" data-name="Layer 1" xmlns="http://www.w3.org/2000/svg" viewBox="0 0 397.33 111.33"><defs><style>.cls-1{font-size:108.59px;fill:#414042;font-family:TisaPro, Tisa Pro;}.cls-2{letter-spacing:-0.01em;}.cls-3{fill:#27aae1;}.cls-4{fill:none;stroke:#27aae1;stroke-miterlimit:10;}.cls-5{font-size:14px;fill:#231f20;font-family:Helvetica-Light, Helvetica;}</style></defs><title>Artboard 1</title><text class="cls-1" transform="translate(105.86 79.42)">P<tspan class="cls-2" x="62" y="0">r</tspan><tspan x="104.89" y="0">etty</tspan></text><path class="cls-3" d="M128.77,48.58V72.36c3.8.22,8.36.54,11.73,1.09a18.62,18.62,0,0,1,.33,6H109a26,26,0,0,1,1.3-5.75,62.59,62.59,0,0,1,8.47-1.41V11.12a64.54,64.54,0,0,1-8-.33,26.72,26.72,0,0,1-.22-6.62c6.08-.56,12.21-.89,18.12-1.06l.12,7.14V48.58Z"/><path class="cls-3" d="M189.79,72.47a54,54,0,0,1,10.75,2,15.2,15.2,0,0,1,.22,5h-11Z"/><path class="cls-3" d="M243.88,73.65a49.79,49.79,0,0,0,15.2-3,11.73,11.73,0,0,1-1.41,6.19,38,38,0,0,1-14,4.29Z"/><polyline class="cls-4" points="102.51 78.45 80.23 78.45 80.23 4.77 102.51 4.77"/><text class="cls-5" transform="translate(0.26 12.8)"><tspan xml:space="preserve"> cap height</tspan></text><text class="cls-5" transform="translate(20.5 33.47)">x-height</text><text class="cls-5" transform="translate(18.16 79.48)">baseline</text><text class="cls-5" transform="translate(170.32 105.26)">serif</text><line class="cls-4" x1="102.51" y1="29" x2="80.73" y2="29"/><line class="cls-4" x1="200.4" y1="78.07" x2="200.4" y2="101.48"/><text class="cls-5" transform="translate(91.06 105.26)">stem</text><line class="cls-4" x1="125.04" y1="78.07" x2="125.04" y2="101.48"/><text class="cls-5" transform="translate(224.65 105.26)">finial</text><line class="cls-4" x1="257.07" y1="76.07" x2="257.07" y2="101.48"/></svg>